<?xml version="1.0" encoding="utf-8"?>
<!-- Generator: Adobe Illustrator 23.0.4, SVG Export Plug-In . SVG Version: 6.00 Build 0)  -->
<svg version="1.1" id="Layer_1" xmlns="http://www.w3.org/2000/svg" xmlns:xlink="http://www.w3.org/1999/xlink" x="0px" y="0px"
	 viewBox="0 0 340.3 390" style="enable-background:new 0 0 340.3 390;" xml:space="preserve">
<style type="text/css">
	.st0{fill:#FFFFFF;}
	.st1{fill:#FFEF6A;}
	.st2{fill:#5BC3E3;}
	.st3{fill:#EE75AB;}
	.st4{fill:#7F68AB;}
	.st5{fill:none;stroke:#FFEF6A;stroke-width:0.7446;stroke-linejoin:round;stroke-miterlimit:10;}
	.st6{fill:#FFFFFF;stroke:#FFEF6A;stroke-width:0.7446;stroke-linejoin:round;stroke-miterlimit:10;}
	.st7{fill:#010202;stroke:#FFEF6A;stroke-width:0.7446;stroke-linejoin:round;stroke-miterlimit:10;}
	.st8{fill:#FFEF6A;stroke:#FFEF6A;stroke-width:0.7446;stroke-linejoin:round;stroke-miterlimit:10;}
	.st9{fill:#5BC3E3;stroke:#FFEF6A;stroke-width:0.7446;stroke-linejoin:round;stroke-miterlimit:10;}
	.st10{fill:#EE75AB;stroke:#FFEF6A;stroke-width:0.7446;stroke-linejoin:round;stroke-miterlimit:10;}
	.st11{fill:#010202;}
</style>
<path d="M330.8,193.9c-6.4-15.4-16-30.8-28.5-45.7c-19.8-23.5-40.8-38.5-44-40.7V52.6h0c0,0,0,0,0,0c0-0.3-0.2-0.6-0.4-0.8
	L179.6,0.2c-0.3-0.2-0.7-0.2-1.1,0l-75.7,52.1c-0.3,0.2-0.4,0.5-0.4,0.8h0v16.7l-74.2,49.5l0,0c-1.1,0.9-1.6,1.9-1.7,2.1
	c-3.7,7.4-0.9,17.6,8.2,29.3c1,1.2,1.9,2.5,3,3.6l-7.9,5.4c-0.3,0.2-0.4,0.5-0.4,0.8h0v101.3L0.6,281.6c-0.2,0.1-0.3,0.4-0.4,0.6H0
	v62c0,0.3,0.2,0.6,0.4,0.8l58.3,39.8c5,3.4,10.7,5.1,16.4,5.1c4.6,0,9.3-1.1,13.7-3.5c3.9-2.1,7.2-4.9,9.7-8.2l53.6-36.9
	c4.2-0.2,8.4-1.3,12.3-3.4c9.3-4.9,15.1-14,15.5-24.5c14.4,12.5,33.4,25.5,50.5,25.5c3.7,0,7.3-0.6,10.8-1.9
	c3.3-1.3,6.3-3.2,8.9-5.7l69-45.6c3.2-1.3,6-3.2,8.6-5.6l0.1-0.1l0,0c6.3-6.3,10.5-16.2,11.8-28.6
	C341.8,232.6,338.8,213.2,330.8,193.9z M318.3,284.2c-2.9,1.1-6,1.7-9.4,1.7c-2.1,0-4.4-0.2-6.7-0.7l33.2-22.1
	c-2,6.5-5,11.8-8.8,15.6L318.3,284.2z M309,287.8c1.5,0,3-0.1,4.5-0.3l-58.8,38.8c2.6-3.8,4.7-8.3,6.2-13.5l39.3-26.1
	C303.1,287.4,306.1,287.8,309,287.8z M261.5,310.1c0.6-2.6,1-5.3,1.3-8.1c0.1-1.2,0.2-2.4,0.3-3.6l24.5-16.3c3.3,1.6,6.7,2.9,10,3.9
	L261.5,310.1z M176.1,322.6l-24.6,16.9c-3.1,0.1-6.2-0.4-9.2-1.4l35.8-24.6C178,316.7,177.3,319.8,176.1,322.6z M1.9,284L19,295.3
	c1.4,0.9,2.9,1.3,4.4,1.3c1.3,0,2.6-0.3,3.8-1c0.1-0.1,0.2-0.1,0.4-0.2l0,0l0.1-0.1c0.2-0.1,0.4-0.3,0.6-0.4l44.5-30.6v28.8L1.9,342
	V284z M96.5,187.3c-2.4,0.9-6.3,0.8-12.4-1.5l16.2-10.9c0.9,3.4,0.6,5.2,0.6,5.2c0,0.1,0,0.1,0,0.2c0,0.1,0.1,3-1.7,5.2L96.5,187.3z
	 M46.8,119.9l55.7-37.6v11.2l-45.8,31.6C53,122.8,49.7,121.1,46.8,119.9z M55,126.3l-23.4,16.2c-1.8-3.1-3.3-6.5-4.1-9.8l0.1,0.2
	l17.3-11.7C48.2,122.5,51.6,124.3,55,126.3z M256.4,173.7l-35.9,23.8c-2.2-2.4-4.3-4.7-6.5-7l42.3-28.1V173.7z M258.3,161.2
	l33.3-22.1c2.1,2.2,4.3,4.6,6.4,7l-39.7,26.4V161.2z M135.5,334.8l-31.1-21.2v-51.6l73,49.8l-37.2,25.6
	C138.5,336.7,137,335.8,135.5,334.8z M74.6,293.2v-30.1L98,247c0.7-0.2,1.4-0.4,2.1-0.8c0.9-0.5,1.7-1.1,2.3-1.9v67.9L74.6,293.2z
	 M26.8,293.7c-0.2,0.1-0.4,0.2-0.6,0.4c-2,1.1-4.4,1-6.3-0.3l-1.4-0.9l10.9-7.5v3.3c0,2-0.9,3.7-2.4,4.9L26.8,293.7z M31.3,288.7
	v-4.6l41.4-28.5v6.5l-41.6,28.6C31.3,290.1,31.3,289.4,31.3,288.7z M74.6,254.3l14.8-10.2l2.6,1.7c0.9,0.6,1.8,1,2.8,1.2l-20.1,13.8
	V254.3z M81.6,238.9l6.1,4.1l-13.1,9v-8.3L81.6,238.9z M74.6,241.5v-7.2l5.3,3.5L74.6,241.5z M104.3,210.9l73.8-49.1v45.8
	l-73.8,50.8v-19.2V210.9z M102.5,175.6c-0.1-0.6-0.3-1.1-0.4-1.8l0.4-0.3V175.6z M101.4,171.9c-0.7-2-1.7-4.3-3.1-6.9l4.2-2.8v9
	L101.4,171.9z M77.4,140.3l25.1-16.9v10.6l-18.6,12.6C81.9,144.5,79.7,142.4,77.4,140.3z M107.8,92.1c1.2,2.1,2.7,4.2,4.3,6.4
	c0.8,1,1.6,2.1,2.4,3.1l-10.3,7.1V94.5L107.8,92.1z M104.3,92.2v-7.4c0.7,1.8,1.5,3.7,2.6,5.6L104.3,92.2z M166.5,103.1l-27.1,18.3
	c-1.3-0.9-2.7-1.9-4.2-2.9c-0.9-0.7-2-1.5-3.1-2.4l28.7-19.3C163,99,164.8,101.1,166.5,103.1z M178.1,127.9c0,0.1,0,0.1,0,0.2
	c0,0.2,0.2,3.8-2.5,5.9l-0.9,0.6c-2.3,1.3-6.4,1.6-13.3-1l16.1-10.9C178.3,126.1,178.1,127.9,178.1,127.9z M178.1,310l-73.1-49.9
	l73.1-50.3V310z M159.3,132.8c-2.3-1-4.8-2.2-7.7-3.8l22.3-15.1c1.5,2.7,2.4,5,3.1,6.9L159.3,132.8z M149.7,128
	c-2.6-1.5-5.5-3.3-8.6-5.4l26.6-17.9c2.2,2.8,3.9,5.4,5.3,7.7L149.7,128z M121.6,121l-7.9-5.2l8.7-5.9c2.4,2.3,4.6,4.4,6.7,6.1
	L121.6,121z M130.6,117.2c1.4,1.1,2.6,2.1,3.6,2.8c1.2,0.9,2.4,1.7,3.6,2.5l-6.9,4.6l-7.6-5L130.6,117.2z M122.6,107.5
	c-1.8-1.8-3.5-3.7-5.2-5.6l27.7-19c2.3,1.8,4.5,3.5,6.4,5.1L122.6,107.5z M121,108.6l-9,6.1l-6.7-4.4l10.6-7.3
	C117.6,105,119.3,106.8,121,108.6z M104.3,111.9l5.9,3.9l-5.9,4V118V111.9z M112,116.9l7.9,5.2l-15.6,10.5v-10.6L112,116.9z
	 M121.6,123.3l7.6,5l-24.9,16.8v-10.2L121.6,123.3z M130.9,129.4l8.4,5.6l-35,23.6v-11.3L130.9,129.4z M132.6,128.3l6.8-4.6
	c3,2,5.9,3.9,8.6,5.5l-7,4.7L132.6,128.3z M130.7,114.9c-2.1-1.8-4.4-3.8-6.7-6.1l29-19.6c2.4,2.1,4.6,4.2,6.5,6.2L130.7,114.9z
	 M143.5,81.7l-27.3,18.7c-0.9-1-1.7-2.1-2.5-3.1c-1.5-1.9-3-4.1-4.3-6.4l23.7-16.4C136.7,76.8,140.2,79.3,143.5,81.7z M102.5,112.2
	v5.9v3L75.9,139c-2-1.7-4-3.2-5.8-4.6L102.5,112.2z M102.5,136.2v10.2l-11.6,7.8c-1.7-2-3.5-4.1-5.7-6.3L102.5,136.2z M102.5,148.6
	v11.3l-5.1,3.4c-1.4-2.3-3.2-4.9-5.3-7.7L102.5,148.6z M104.3,160.9l36.7-24.8l6.8,4.5l-43.5,29.4V160.9z M142.7,135l7.1-4.8
	c2.7,1.5,5.2,2.8,7.6,3.9l-7.9,5.4L142.7,135z M159.5,134.9c4.2,1.7,7.9,2.6,10.9,2.6c0,0,0.1,0,0.1,0l-11.8,8l-7.5-4.9L159.5,134.9
	z M175.6,136.3C175.6,136.3,175.7,136.3,175.6,136.3c0.4-0.2,0.8-0.5,1.1-0.7l0,0l0,0c0.5-0.4,1-0.9,1.4-1.4v24.2l-17.8-11.7
	L175.6,136.3z M104.3,315.8l7.5,5.1l-7.5,5.2V315.8z M113.5,322l7.7,5.3l-16.8,11.6v-10.5L113.5,322L113.5,322z M122.8,328.4
	l7.6,5.2l-26.1,17.9v-10.4L122.8,328.4z M180,209.9l75.6,49.9L180,310V209.9z M180,207.6v-45.2c0.1,0.1,0.2,0.2,0.3,0.3
	c8.2,6.5,30,23.9,49.2,48.5c12.1,15.6,20.9,31.1,26.1,46.3L180,207.6z M236.5,217.5l19.9-13.2v11.9l-14.3,9.5
	C240.3,223,238.5,220.2,236.5,217.5z M266.7,268.7c2.5,1.9,5.1,3.8,7.7,5.6l-11.4,7.6c-0.3-3.3-0.8-6.5-1.4-9.8L266.7,268.7z
	 M261.1,270.1c-0.5-2.5-1.2-5-1.9-7.5c1.9,1.6,3.8,3.3,5.9,4.9L261.1,270.1z M268.3,267.6L337,222c0.5,3.3,0.9,6.7,1.2,10
	l-62.1,41.3C273.5,271.5,270.9,269.7,268.3,267.6z M336.6,219.9l-69.9,46.5c-2.6-2-5.2-4.2-7.8-6.6l75.4-50.1
	C335.2,213.1,336,216.6,336.6,219.9L336.6,219.9z M258.3,258v-12.3l72-47.9c1.3,3.3,2.4,6.7,3.4,10L258.3,258z M256.4,254.1
	c-0.7-1.9-1.4-3.7-2.2-5.6l2.2-1.5V254.1z M253.4,246.7c-1.2-2.7-2.5-5.4-3.9-8.2l6.9-4.6v10.8L253.4,246.7z M248.6,236.9
	c-1.7-3.2-3.5-6.4-5.5-9.6l13.3-8.9v13.2L248.6,236.9z M258.3,217.2l61.6-41c1.9,3.2,3.6,6.5,5.3,9.7l-66.8,44.5V217.2z M258.3,215
	V203l55.3-36.8c1.9,2.8,3.7,5.6,5.3,8.4L258.3,215z M258.3,200.8v-12.3l48.2-32c2.1,2.7,4.1,5.5,6.1,8.3L258.3,200.8z M256.4,202
	l-21,13.9c-1.4-2-2.9-3.9-4.4-5.9c-0.6-0.8-1.2-1.5-1.8-2.3l27.2-18.1V202z M228,206.3c-2.1-2.5-4.1-5-6.2-7.3l34.6-23v11.5
	L228,206.3z M212.8,189.2c-2.2-2.2-4.3-4.3-6.4-6.3l50-33.3v10.6L212.8,189.2z M205,181.5c-2.3-2.2-4.6-4.3-6.7-6.2l58.1-38.7v10.7
	L205,181.5z M258.3,135.4l17.4-11.6c2.2,1.9,4.4,4,6.8,6.2l-24.2,16.1V135.4z M258.3,133.1V121l7.9-5.2c2.4,1.9,5.1,4.1,8.1,6.7
	L258.3,133.1z M256.4,134.4L196.8,174c-2.9-2.6-5.6-4.9-8-6.8l67.5-44.9V134.4z M187.4,165.9c-2.4-1.9-4.3-3.5-5.9-4.7
	c-0.4-0.3-0.8-0.6-1.1-0.9l76-50.6V120L187.4,165.9z M256.4,107.5L180,158.3v-30.9c0-0.2,0-0.4,0-0.7v-21.5l76.4-50.8V107.5z
	 M178.1,118.5c-2.2-5.7-6.9-13.7-16.7-23.7l-0.3-0.4l-0.1,0.1c-0.9-0.9-1.9-1.9-2.9-2.8l19.9,13.6V118.5z M122.2,66.9L122.2,66.9
	L122.2,66.9C122.2,67,122.2,67,122.2,66.9z M131.3,73.6l-22.8,15.8c-1.5-2.9-2.8-5.8-3.4-8.8L122.2,69
	C125.1,70.1,128.2,71.7,131.3,73.6z M104.7,78.5c-0.3-2.9,0-5.8,1.3-8.4c0,0,0-0.1,0-0.1c0,0,0.8-2,3.9-2.8c0.9-0.2,1.9-0.4,2.9-0.4
	c2.2,0,4.6,0.5,7.2,1.4L104.7,78.5z M102.5,95.8v14l-34,23.4c-3.6-2.7-7-5-10-7L102.5,95.8z M68.4,135.5c2.1,1.6,4.1,3.2,5.8,4.6
	l-28.9,19.5c-1.6-1.6-3.2-3.3-4.8-5L68.4,135.5z M75.7,141.4c2.4,2.1,4.6,4.2,6.5,6.2L53.4,167c-2.1-1.8-4.4-3.8-6.7-6L75.7,141.4z
	 M83.6,148.9c2.1,2.2,4,4.3,5.7,6.3l-27.1,18.3c-1.3-0.9-2.6-1.8-4-2.8c-1-0.7-2.1-1.5-3.2-2.4L83.6,148.9z M90.4,156.7
	c2.2,2.8,3.9,5.4,5.3,7.7l-23.3,15.7c-2.6-1.5-5.5-3.3-8.6-5.4L90.4,156.7z M96.7,166.1c1.5,2.7,2.4,5,3.1,7L82,185
	c-2.3-1-4.8-2.2-7.7-3.8L96.7,166.1z M102.5,183.3L102.5,183.3L102.5,183.3C102.4,183.3,102.5,183.3,102.5,183.3z M104.3,172.2
	l45.2-30.5l7.5,4.9l-52.6,35.5V172.2z M158.7,147.7l18.5,12.2c0,0.1,0.1,0.1,0.1,0.2l-72.9,48.5v-24.3L158.7,147.7z M102.5,239.2
	c0,2.3-1.2,4.3-3.2,5.4c-0.6,0.3-1.2,0.5-1.9,0.6l0,0l0,0c-1.5,0.2-3-0.1-4.3-0.9l-18.8-12.5c-0.3-0.2-0.7-0.2-1,0
	c0,0-0.1,0-0.1,0.1l0,0l-41.8,28.7v-98.3l71.1,48.5V239.2z M31.3,262.8l41.4-28.5v8.4l-41.4,28.5V262.8z M72.7,245.1v8.3l-41.4,28.5
	v-8.3L72.7,245.1z M29.5,283.1l-12.6,8.6l-6.1-4.1l18.7-12.8V283.1z M73.6,294.9l8.8,6L11,350l-8.8-6L73.6,294.9z M84.1,302l8.9,6
	l-71.4,49.1l-8.9-6L84.1,302z M94.6,309.2l7.9,5.4v0l-71.4,49.1l-7.9-5.4L94.6,309.2z M102.5,316.9v10.6l-62,42.6l-7.7-5.3
	L102.5,316.9z M102.5,329.7v10.5l-52.7,36.2l-7.6-5.2L102.5,329.7z M102.5,342.5v10.4L59,382.7l-7.6-5.2L102.5,342.5z M102.5,355.1
	v5.6c0,0.9,0,1.7-0.1,2.6L67.8,387c-2.5-0.7-4.8-1.8-7.1-3.2L102.5,355.1z M104.3,360.7v-6.9l27.7-19.1l2.3,1.6
	c1.2,0.9,2.5,1.6,3.9,2.2l-33.9,23.4C104.3,361.5,104.3,361.1,104.3,360.7z M256.8,261.2c1,3.4,1.9,6.7,2.6,10l-70.8,47.1
	c-2.5-2-5.2-4.2-7.9-6.5L256.8,261.2z M259.8,273.2c0.6,3.3,1.1,6.6,1.4,9.9l-63.1,42c-2.5-1.7-5.1-3.5-7.8-5.6L259.8,273.2z
	 M261.4,285.3c0.3,4,0.2,8.1,0,12.1l-51.7,34.4c-3.1-1.5-6.4-3.3-9.9-5.5L261.4,285.3z M261.2,299.7c-0.1,0.7-0.1,1.4-0.2,2
	c-0.4,3.5-1,6.8-1.8,9.8l-37,24.6c-3.2-0.7-6.7-1.9-10.6-3.5L261.2,299.7z M263.3,296c0.2-4,0.1-7.9-0.2-11.9l12.9-8.6
	c3.2,2.1,6.4,4,9.6,5.7L263.3,296z M277.8,274.4l60.5-40.2c0.2,4.1,0.2,8.1-0.1,12.1L287.5,280C284.3,278.4,281.1,276.5,277.8,274.4
	z M329.6,196l-71.3,47.4v-10.8l67.7-45c1.1,2.3,2.2,4.6,3.1,7C329.3,195.1,329.4,195.6,329.6,196z M305.3,154.9l-47,31.3v-11.5
	l40.9-27.2c0.6,0.6,1.1,1.3,1.6,1.9C302.4,151.3,303.9,153.1,305.3,154.9z M290.2,137.7l-31.9,21.3v-10.6l25.6-17
	C286,133.3,288.1,135.5,290.2,137.7z M264.6,114.5l-6.3,4.2v-9C259.6,110.7,261.8,112.3,264.6,114.5z M180,102.9V2.7l75.6,49.9
	L180,102.9z M178.1,2.7v100.1L105.1,53L178.1,2.7z M104.3,54.8l17.6,12l-0.1,0c-4.7-1.8-9-2.5-12.5-1.5c-2.1,0.6-3.4,1.6-4.2,2.5
	l-0.9,0.6V54.8z M102.5,80l-57.8,39.1c-4.1-1.5-7.3-2.1-9.8-2l67.6-45.1V80z M28.3,122.1C28.3,122.1,28.3,122.1,28.3,122.1
	c0-0.1,0.9-2.1,4.1-2.9c0.9-0.2,1.9-0.3,2.9-0.3c2.3,0,4.8,0.5,7.5,1.4l-15.6,10.6C26.7,127.8,27,124.8,28.3,122.1z M32.5,144.1
	l24.2-16.7c3.5,2.2,6.9,4.6,10.1,6.9l-27.5,18.9c-1.1-1.2-2.1-2.5-3-3.7C35,147.8,33.7,146,32.5,144.1z M39,155.7
	c6.9,7.8,14.2,13.9,18,16.6c16.2,11.6,28.3,17.5,36.2,17.5c2.1,0,3.8-0.4,5.3-1.2c0.8-0.5,1.5-1,2-1.6l1.9-1.3v22.9l-70.4-48
	L39,155.7z M29.5,264.1v8.4l-20.4,14l-6.2-4.1L29.5,264.1z M70.3,387.6l31.7-21.8c-0.7,4.1-2.4,7.9-4.8,11.1L82.5,387
	C78.5,388.2,74.3,388.4,70.3,387.6z M104.1,364.3l7.7-5.3l0,0.1l28.5-19.6c2.7,1.1,5.6,1.7,8.5,1.9l-47.8,32.9
	C102.7,371.2,103.7,367.9,104.1,364.3z M163.6,336.4c-2.6,1.4-5.4,2.3-8.2,2.8l19-13.1C171.9,330.3,168.2,333.9,163.6,336.4z
	 M240.6,335.4c-4,1.5-9.2,2.4-15.7,1.3l33.5-22.3C254.9,324.8,248.7,332.2,240.6,335.4z M336.2,260.4l-36.5,24.2
	c-3.3-0.8-6.7-2.1-10.3-3.7l48.6-32.3c-0.1,0.9-0.2,1.8-0.3,2.8C337.4,254.6,336.9,257.6,336.2,260.4z"/>
</svg>
